<svg xmlns="http://www.w3.org/2000/svg" viewBox="0 0 160.99 138.11"><defs><style>.cls-1{fill:#fed14e;}.cls-2{fill:#fff;}</style></defs><g id="Capa_2" data-name="Capa 2"><g id="Capa_1-2" data-name="Capa 1"><path class="cls-1" d="M94.71,41.52l26.34,9.88c1.9.71,2.16,3.73.48,5.56L97.47,83.24c-1.67,1.83-1.41,4.85.48,5.56l8.79,3.3c2,.73,2.16,3.93.34,5.71L72.84,137.18c-2.61,2.56-5.66-.63-3.82-4l9.4-28c1-1.88.52-4.16-1.06-4.76L63.78,95.36c-1.63-.61-2.11-3-1-4.91l28.5-47.36A2.94,2.94,0,0,1,94.71,41.52Z"/><path class="cls-1" d="M38.39,71.91l12.8,2.69c.92.19,1.25,1.56.61,2.52L42.59,90.88c-.64,1-.31,2.33.61,2.53l4.27.89c1,.21,1.27,1.66.56,2.61L32.32,117.83c-1,1.35-2.65.1-2-1.57l5.1-13.94a1.54,1.54,0,0,0-.82-2.11L28,98.82a1.55,1.55,0,0,1-.79-2.18l9.76-23.77A1.37,1.37,0,0,1,38.39,71.91Z"/><path class="cls-1" d="M131.82,71.91l12.8,2.69c.92.19,1.26,1.56.61,2.52L136,90.88c-.65,1-.31,2.33.61,2.53l4.27.89c1,.21,1.26,1.66.55,2.61l-15.71,20.92c-1,1.35-2.64.1-2-1.57l5.09-13.94a1.54,1.54,0,0,0-.82-2.11l-6.59-1.39a1.54,1.54,0,0,1-.8-2.18l9.77-23.77A1.36,1.36,0,0,1,131.82,71.91Z"/><path class="cls-2" d="M0,58.26A33.23,33.23,0,0,1,42.6,26.41,37.82,37.82,0,0,1,110,16.68a17.22,17.22,0,0,1,26,14.79c0,.46,0,.91-.05,1.36a29.48,29.48,0,0,1-1.7,58.49v.14H29.89v-.17A33.2,33.2,0,0,1,0,58.26Z"/></g></g></svg>