<?xml version="1.0" encoding="utf-8"?>
<!-- Generator: Adobe Illustrator 25.3.1, SVG Export Plug-In . SVG Version: 6.00 Build 0)  -->
<svg version="1.1" id="Capa_1" xmlns="http://www.w3.org/2000/svg" xmlns:xlink="http://www.w3.org/1999/xlink" x="0px" y="0px"
	 viewBox="0 0 300 300" style="enable-background:new 0 0 300 300;" xml:space="preserve">
<style type="text/css">
	.st0{fill:#FFFFFF;}
	.st1{fill:none;stroke:#FFFFFF;stroke-width:7;stroke-linecap:round;stroke-linejoin:round;stroke-miterlimit:10;}
	.st2{fill:none;stroke:#FFFFFF;stroke-width:6;stroke-miterlimit:10;}
	.st3{fill:none;stroke:#FFFFFF;stroke-width:3;stroke-miterlimit:10;}
	.st4{fill:none;stroke:#FCFCFC;stroke-width:6;stroke-miterlimit:10;}
	.st5{fill:none;stroke:#FCFCFC;stroke-width:3;stroke-miterlimit:10;}

	#derecha {
		transform: rotate(0deg);
		animation: ruedaDerecha 4s ease-inout 2s normal forwards;
	}

	@keyframes ruedaDerecha {
		from {
	transform:rotate(0deg)
		}
		to {
	transform:rotate(360deg)
		}

	}
</style>
<circle id="cuerpo" class="st0" cx="214.7" cy="83.3" r="12.9"/>
<path id="torzo" class="st1" d="M210.4,119.3c0,0-44.2,10.2-24.2-36.3c0,0-40.5-6.3-72.2,35.5c-1.1,1.4-0.6,3.4,0.9,4.3
	c8.3,4.6,31.5,22,35.3,75.4"/>
<g id="izquierda">
	<circle class="st2" cx="80.5" cy="185.6" r="41"/>
	<circle class="st0" cx="80.5" cy="185.6" r="4.3"/>
	<line class="st3" x1="80.5" y1="185.6" x2="80.5" y2="144.7"/>
	<line class="st3" x1="80.5" y1="185.6" x2="45" y2="165.2"/>
	<line class="st3" x1="80.5" y1="185.6" x2="45" y2="206.1"/>
	<line class="st3" x1="80.5" y1="185.6" x2="80.5" y2="226.6"/>
	<line class="st3" x1="80.5" y1="185.6" x2="116" y2="206.1"/>
	<line class="st3" x1="80.5" y1="185.6" x2="116" y2="165.2"/>
</g>
<g id="derecha">
	<circle class="st4" cx="219.5" cy="185.6" r="41"/>
	<circle class="st0" cx="219.5" cy="185.6" r="4.3"/>
	<line class="st5" x1="219.5" y1="185.6" x2="219.5" y2="144.7"/>
	<line class="st5" x1="219.5" y1="185.6" x2="184" y2="165.2"/>
	<line class="st5" x1="219.5" y1="185.6" x2="184" y2="206.1"/>
	<line class="st5" x1="219.5" y1="185.6" x2="219.5" y2="226.6"/>
	<line class="st5" x1="219.5" y1="185.6" x2="255" y2="206.1"/>
	<line class="st5" x1="219.5" y1="185.6" x2="255" y2="165.2"/>
</g>
</svg>
